<?xml version="1.0" standalone="no"?>
<!DOCTYPE svg PUBLIC "-//W3C//DTD SVG 20010904//EN"
 "http://www.w3.org/TR/2001/REC-SVG-20010904/DTD/svg10.dtd">
<svg version="1.0" xmlns="http://www.w3.org/2000/svg"
 width="16.000000pt" height="16.000000pt" viewBox="0 0 16.000000 16.000000"
 preserveAspectRatio="xMidYMid meet">
<metadata>
Created by potrace 1.11, written by Peter Selinger 2001-2013
</metadata>
<g transform="translate(0.000000,16.000000) scale(0.007512,-0.007512)"
fill="#000000" stroke="none">
<path d="M935 2114 c-78 -15 -103 -24 -190 -66 -111 -54 -179 -106 -265 -204
-104 -118 -193 -328 -205 -484 -5 -56 -5 -552 -1 -585 12 -86 19 -122 27 -138
6 -9 7 -17 4 -17 -3 0 1 -16 9 -35 9 -20 15 -38 15 -40 0 -3 9 -26 21 -51 11
-26 20 -50 20 -55 0 -5 5 -9 10 -9 6 0 10 -5 10 -10 0 -26 76 -125 155 -203
82 -80 249 -174 340 -191 17 -2 44 -8 60 -12 55 -13 227 -7 290 10 79 22 76
21 110 35 135 52 283 172 361 292 16 24 31 46 34 49 4 3 12 21 20 40 8 19 17
37 21 40 13 10 59 156 72 230 13 76 16 613 3 697 -12 80 -73 262 -96 283 -3 3
-11 16 -18 30 -34 65 -47 84 -120 158 -77 81 -179 153 -262 186 -25 10 -54 22
-65 27 -77 32 -254 43 -360 23z"/>
</g>
</svg>
